<svg xmlns="http://www.w3.org/2000/svg" viewBox="0 0 512 512"><g fill-rule="evenodd"><path fill="#206bc4" d="M208.082 16.085h96c106.04 0 192 85.961 192 192v96c0 106.039-85.96 192-192 192h-96c-106.038 0-192-85.961-192-192v-96c0-106.039 85.962-192 192-192z"/><path fill="#fff" d="M381.435 217.048c-.023-.164-.062-.313-.086-.47a10.74 10.74 0 0 0-.187-.898c-.047-.179-.117-.351-.172-.523a13.186 13.186 0 0 0-.273-.78 5.34 5.34 0 0 0-.242-.525 5.54 5.54 0 0 0-.367-.71c-.094-.172-.204-.337-.305-.5a7.557 7.557 0 0 0-.454-.657 9.588 9.588 0 0 0-.905-1.046c-.141-.142-.274-.29-.422-.414-.2-.177-.403-.35-.61-.517-.163-.125-.32-.25-.483-.367-.064-.039-.118-.093-.18-.133l-114.259-76.17a10.747 10.747 0 0 0-11.921 0l-114.25 76.17c-.063.04-.117.094-.18.134a7.82 7.82 0 0 0-.485.367 9.7 9.7 0 0 0-.609.516c-.148.125-.289.273-.43.414a7.503 7.503 0 0 0-.53.586 6.474 6.474 0 0 0-.376.46c-.156.211-.305.43-.445.656a8.47 8.47 0 0 0-.68 1.211c-.078.164-.164.344-.234.524a8.76 8.76 0 0 0-.281.781c-.055.172-.117.344-.165.523-.078.29-.133.595-.187.899-.03.156-.07.305-.086.469-.066.463-.1.93-.102 1.398v76.172c0 .47.04.937.102 1.407.016.148.055.304.086.46.055.305.11.602.187.899.047.179.11.351.165.523.085.258.171.523.28.79.071.171.157.343.235.515.117.242.234.477.367.718.102.165.203.329.313.492.14.228.289.438.445.65.117.163.242.32.375.468.165.195.344.398.531.578.323.337.67.65 1.04.937.155.125.312.25.484.367.062.04.116.094.18.133l114.25 76.172a10.736 10.736 0 0 0 5.96 1.805c2.079 0 4.156-.602 5.961-1.805l114.259-76.172c.062-.039.116-.093.179-.133.164-.117.32-.242.484-.367.203-.164.407-.335.61-.515.148-.134.28-.274.422-.422.187-.18.366-.383.539-.578a7.87 7.87 0 0 0 .366-.469 7.1 7.1 0 0 0 .454-.648c.101-.164.21-.328.305-.492.14-.242.258-.477.366-.719.086-.172.173-.344.243-.517.102-.265.187-.53.273-.788.055-.172.125-.344.172-.523.078-.297.133-.594.187-.899.025-.156.063-.312.086-.46.063-.47.094-.938.094-1.407v-76.172c0-.476-.031-.945-.094-1.398zm-114.163-54.696 84.172 56.11-37.595 25.148-46.577-31.156v-50.102zm-21.485 0v50.102l-46.57 31.156-37.602-25.148 84.172-56.11zm-92.773 76.203 26.883 17.977-26.883 17.977v-35.954zm92.774 112.157-84.172-56.11 37.602-25.14 46.57 31.148v50.102zm10.741-68.766-37.991-25.414 37.991-25.414 38 25.414-38 25.414zm10.742 68.766V300.61l46.578-31.148 37.595 25.14-84.172 56.11zm92.774-76.203-26.875-17.977 26.875-17.977v35.954z"/></g></svg>